# xmcd CD database file
#
# Track frame offsets:
#	150
#	23660
#	43578
#	60894
#	95742
#	109392
#	136575
#	151883
#	174270
#
# Disc length: 2630 seconds
#
# Revision: 0
# Processed by: cddbd v1.5.2PL0 Copyright (c) Steve Scherf et al.
# Submitted via: CDex 1.70beta2
#
DISCID=640a4409
DTITLE=Francois Faure Trio - Emily
DYEAR=2008
DGENRE=Jazz
TTITLE0=Francois Faure Trio - Juju
TTITLE1=Francois Faure Trio - Emily
TTITLE2=Francois Faure Trio - You, the Night and the Music
TTITLE3=Francois Faure Trio - Lover Man
TTITLE4=Francois Faure Trio - Funk 34
TTITLE5=Francois Faure Trio - You Don't Know What Love is
TTITLE6=Francois Faure Trio - Body and Soul
TTITLE7=Francois Faure Trio - Over the Rainbow
TTITLE8=Francois Faure Trio - Blues For Cythia
EXTD=YEAR: 2008
EXTT0=
EXTT1=
EXTT2=
EXTT3=
EXTT4=
EXTT5=
EXTT6=
EXTT7=
EXTT8=
PLAYORDER=
